<svg id="Layer_1" data-name="Layer 1" xmlns="http://www.w3.org/2000/svg" viewBox="0 0 868.68 457.47"><defs><style>.cls-1{fill:#57d099;}.cls-2{fill:#096;}.cls-3{fill:#cffbe3;}.cls-4{fill:#fff;}.cls-5{fill:none;}.cls-5,.cls-7{stroke:#000;}.cls-5,.cls-6,.cls-7{stroke-miterlimit:10;stroke-width:3px;}.cls-6{fill:#cea525;stroke:#614901;}.cls-7{font-size:114px;font-family:Lato-Black, Lato;font-weight:800;}.cls-8{letter-spacing:-0.01em;}</style></defs><title>Logo</title><polygon class="cls-1" points="200.29 310.74 199.94 159.33 329.14 80.4 458.71 152.88 459.07 304.29 329.86 383.22 200.29 310.74"/><polygon class="cls-2" points="329.82 231.99 329.46 80.58 458.67 1.65 588.24 74.13 588.59 225.54 459.38 304.47 329.82 231.99"/><polygon class="cls-3" points="329.94 383.27 329.59 231.86 458.8 152.93 588.37 225.41 588.72 376.82 459.51 455.75 329.94 383.27"/><polygon class="cls-1" points="458.22 303.82 329.23 231.66 329.3 382.91 458.22 303.82"/><polygon class="cls-4" points="329.23 231.66 458.22 303.81 458.15 152.57 329.23 231.66"/><polygon class="cls-5" points="459.33 455.74 588.33 376.74 588.33 73.74 459.33 1.74 200.33 159.74 200.33 310.74 459.33 455.74"/><path class="cls-6" d="M550.53,759.49" transform="translate(-220.67 -376.26)"/><text class="cls-7" transform="translate(431.85 375.51)">de K<tspan class="cls-8" x="231.53" y="0">r</tspan><tspan x="277.47" y="0">ak</tspan></text><text class="cls-7" transform="translate(1.5 218.38)">Kasper</text></svg>