<svg id="Layer_1" data-name="Layer 1" xmlns="http://www.w3.org/2000/svg" viewBox="0 0 844.48 844.48"><defs><style>.cls-1{fill:#57d099;}.cls-2{fill:#096;}.cls-3{fill:#cffbe3;}.cls-4{fill:#fff;}.cls-10,.cls-5,.cls-8{fill:none;stroke:#000;stroke-miterlimit:10;stroke-width:3px;}.cls-10,.cls-6,.cls-7,.cls-8,.cls-9{isolation:isolate;}.cls-10,.cls-7,.cls-8,.cls-9{font-size:114px;font-family:Lato-Bold, Lato;font-weight:700;}.cls-10,.cls-9{letter-spacing:-0.01em;}</style></defs><title>logop</title><polygon class="cls-1" points="198.79 504.28 198.44 352.87 327.64 273.94 457.21 346.42 457.57 497.83 328.36 576.76 198.79 504.28"/><polygon class="cls-2" points="328.32 425.53 327.96 274.12 457.17 195.19 586.74 267.67 587.09 419.08 457.88 498.01 328.32 425.53"/><polygon class="cls-3" points="328.44 576.81 328.09 425.4 457.3 346.47 586.87 418.95 587.22 570.36 458.01 649.29 328.44 576.81"/><polygon class="cls-1" points="456.72 497.36 327.73 425.2 327.8 576.45 456.72 497.36"/><polygon class="cls-4" points="327.73 425.2 456.72 497.35 456.65 346.11 327.73 425.2"/><polygon class="cls-5" points="457.83 649.28 586.83 570.28 586.83 267.28 457.83 195.28 198.83 353.28 198.83 504.28 457.83 649.28"/><g class="cls-6"><text class="cls-7" transform="translate(430.35 569.05)">de K</text><text class="cls-8" transform="translate(430.35 569.05)">de K</text><text class="cls-9" transform="translate(661.88 569.05)">r</text><text class="cls-10" transform="translate(661.88 569.05)">r</text><text class="cls-7" transform="translate(707.82 569.05)">ak</text><text class="cls-8" transform="translate(707.82 569.05)">ak</text></g><text class="cls-7" transform="translate(0 411.92)">Kasper</text><text class="cls-8" transform="translate(0 411.92)">Kasper</text></svg>